<!-- icon666.com - MILLIONS vector ICONS FREE --><svg viewBox="0 0 60 54" xmlns="http://www.w3.org/2000/svg"><g id="Page-1" fill="none" fill-rule="evenodd"><g id="071---Portfolio"><path id="Shape" d="m59 15v34c0 2.209139-1.790861 4-4 4h-50c-2.209139 0-4-1.790861-4-4v-34c-.00155918-2.0002864.99660355-3.8690272 2.66-4.98.85496532.7540149 1.34331529 1.8400469 1.34 2.98v18c.0032948 1.1032019.89679813 1.9967052 2 2h46c1.1032019-.0032948 1.9967052-.8967981 2-2v-18c-.0033153-1.1399531.4850347-2.2259851 1.34-2.98 1.6633964 1.1109728 2.6615592 2.9797136 2.66 4.98z" fill="#cad9fc" fill-rule="nonzero"></path><path id="Shape" d="m56.34 10.02c-.5747915.5133984-.9864379 1.1840621-1.184 1.929.5515346.9221892.8431799 1.9764663.844 3.051v34c0 2.209139-1.790861 4-4 4h3c2.209139 0 4-1.790861 4-4v-34c.0015592-2.0002864-.9966036-3.8690272-2.66-4.98z" fill="#a4c2f7" fill-rule="nonzero"></path><path id="Shape" d="m56.34 10.02c-.8549653.7540149-1.3433153 1.8400469-1.34 2.98v18c-.0032948 1.1032019-.8967981 1.9967052-2 2h-46c-1.10320187-.0032948-1.9967052-.8967981-2-2v-18c.00331529-1.1399531-.48503468-2.2259851-1.34-2.98.98516631-.6686873 2.14933732-1.02421257 3.34-1.02h46c1.1906627-.00421257 2.3548337.3513127 3.34 1.02z" fill="#e8edfc" fill-rule="nonzero"></path><path id="Shape" d="m53 9-3-.00003701c1.1906627-.00417556 2.3548337.35134971 3.34 1.02003701-.8549653.7540149-1.3433153 1.8400469-1.34 2.98v18c-.0032948 1.1032019-.8967981 1.9967052-2 2h3c1.1032019-.0032948 1.9967052-.8967981 2-2v-18c-.0033153-1.1399531.4850347-2.2259851 1.34-2.98-.9851663-.6686873-2.1493373-1.02421257-3.34-1.02z" fill="#cad9fc" fill-rule="nonzero"></path><rect id="Rectangle-path" fill="#e8edfc" fill-rule="nonzero" height="4" rx="2" width="28" x="16" y="1"></rect><path id="Shape" d="m42 1h-3c1.1045695 0 2 .8954305 2 2s-.8954305 2-2 2h3c1.1045695 0 2-.8954305 2-2s-.8954305-2-2-2z" fill="#cad9fc" fill-rule="nonzero"></path><path id="Shape" d="m16 3-4 6" stroke="#428dff" stroke-linecap="round" stroke-linejoin="round" stroke-width="2"></path><path id="Shape" d="m44 3 4 6" stroke="#428dff" stroke-linecap="round" stroke-linejoin="round" stroke-width="2"></path><g fill-rule="nonzero"><path id="Shape" d="m33 32v5h-6v-5c.0032948-1.1032019.8967981-1.9967052 2-2h2c1.1032019.0032948 1.9967052.8967981 2 2z" fill="#e8edfc"></path><path id="Shape" d="m34.98 28.64c-.2 3.48-1.98 4.53-1.98 7.36v-4c-.0032948-1.1032019-.8967981-1.9967052-2-2h-2c-1.1032019.0032948-1.9967052.8967981-2 2v4c0-3-2-4-2-8-.0002496-1.3835524.5727981-2.7053614 1.5828008-3.6509362 1.0100028-.9455748 2.3666635-1.4303783 3.7471992-1.3390638 2.8179445.3094899 4.8785194 2.8043365 4.65 5.63z" fill="#cad9fc"></path><path id="Shape" d="m33 41v5c0 1.6568542-1.3431458 3-3 3s-3-1.3431458-3-3v-5z" fill="#e8edfc"></path><path id="Shape" d="m30 41v5c-.0009541 1.068124-.5731232 2.0541619-1.5 2.585.9246251.5468678 2.0719267.5541481 3.0034175.0190585.9314907-.5350897 1.5031833-1.5298367 1.4965825-2.6040585v-5z" fill="#cad9fc"></path><path id="Shape" d="m31 30h-2c-.1691076.0019093-.3372244.0261181-.5.072.8799839.2272021 1.4961391 1.0191669 1.5 1.928v5h3v-5c-.0032948-1.1032019-.8967981-1.9967052-2-2z" fill="#cad9fc"></path><rect id="Rectangle-path" fill="#e8edfc" height="4" rx="1" width="8" x="26" y="37"></rect><path id="Shape" d="m33 37h-3c.5522847 0 1 .4477153 1 1v2c0 .5522847-.4477153 1-1 1h3c.5522847 0 1-.4477153 1-1v-2c0-.5522847-.4477153-1-1-1z" fill="#cad9fc"></path><path id="Shape" d="m50 9h2.952c-.835-.034-1.779 0-2.952 0z" fill="#fff"></path><path id="Shape" d="m4.771 9.43c-2.2774014.9112716-3.77075563 3.1170481-3.771 5.57v34c0 2.209139 1.790861 4 4 4h3c-2.209139 0-4-1.790861-4-4v-34" fill="#fff"></path><path id="Rectangle-path" d="m0 15h2v8h-2z" fill="#fff"></path><path id="Shape" d="m7 48h-2c-.55228475 0-1 .4477153-1 1s.44771525 1 1 1h2c.55228475 0 1-.4477153 1-1s-.44771525-1-1-1z" fill="#428dff"></path><path id="Shape" d="m23 48h-12c-.5522847 0-1 .4477153-1 1s.4477153 1 1 1h12c.5522847 0 1-.4477153 1-1s-.4477153-1-1-1z" fill="#428dff"></path><path id="Shape" d="m55 48h-2c-.5522847 0-1 .4477153-1 1s.4477153 1 1 1h2c.5522847 0 1-.4477153 1-1s-.4477153-1-1-1z" fill="#428dff"></path><path id="Shape" d="m49 48h-12c-.5522847 0-1 .4477153-1 1s.4477153 1 1 1h12c.5522847 0 1-.4477153 1-1s-.4477153-1-1-1z" fill="#428dff"></path><path id="Shape" d="m1.02 20c-.55228475.0027614-1.00223858-.4427153-1.005-.995s.44271525-1.0022386.995-1.005h.01c.55228475 0 1 .4477153 1 1s-.44771525 1-1 1z" fill="#428dff"></path><path id="Shape" d="m53 8h-4.465l-3.571-5.357c-.1775091-1.50376021-1.4498065-2.6382683-2.964-2.643h-24c-1.5141935.0047317-2.7864909 1.13923979-2.964 2.643l-3.571 5.357h-4.465c-3.86416566.00440864-6.99559136 3.1358343-7 7 0 .5522847.44771525 1 1 1s1-.4477153 1-1c.00119734-1.3534429.55321468-2.6481023 1.529-3.586.30374993.473522.46706157 1.0234419.471 1.586v18c0 1.6568542 1.34314575 3 3 3h18.6c.26069.6347458.3965039 1.3138154.4 2v.278c-.6167513.3544126-.997855 1.0106732-1 1.722v2c.002145.7113268.3832487 1.3675874 1 1.722v4.278c0 2.209139 1.790861 4 4 4s4-1.790861 4-4v-4.278c.6167513-.3544126.997855-1.0106732 1-1.722v-2c-.002145-.7113268-.3832487-1.3675874-1-1.722v-.278c.003696-.6861643.1395023-1.3651961.4-2h18.6c1.6568542 0 3-1.3431458 3-3v-18c.0039384-.5625581.1672501-1.112478.471-1.586.9757853.9378977 1.5278027 2.2325571 1.529 3.586v34c0 1.6568542-1.3431458 3-3 3h-50c-1.65685425 0-3-1.3431458-3-3v-26c0-.5522847-.44771525-1-1-1s-1 .4477153-1 1v26c.00330612 2.7600532 2.23994685 4.9966939 5 5h50c2.7600532-.0033061 4.9966939-2.2399468 5-5v-34c-.0044086-3.8641657-3.1358343-6.99559136-7-7zm-35-6h24c.5522847 0 1 .44771525 1 1s-.4477153 1-1 1h-24c-.5522847 0-1-.44771525-1-1s.4477153-1 1-1zm-2.171 3.059c.5630012.59953874 1.3485548.94002974 2.171.941h24c.8224452-.00097026 1.6079988-.34146126 2.171-.941l1.961 2.941h-32.264zm16.171 40.941c0 1.1045695-.8954305 2-2 2s-2-.8954305-2-2v-4h4zm-5-6v-2h6v2zm1-4v-4c0-.5522847.4477153-1 1-1h2c.5522847 0 1 .4477153 1 1v4zm5.626-5.421c-.5187877-.9687864-1.5270586-1.5750544-2.626-1.579h-2c-1.0989414.0039456-2.1072123.6102136-2.626 1.579-.258647-.834846-.3848451-1.7050729-.374-2.579-.0002365-1.1072134.4584734-2.1649966 1.2669239-2.9215212.8084504-.7565247 1.8943135-1.1441085 2.9990761-1.0704788 2.2655953.2798586 3.9056725 2.2991622 3.715 4.574-.0346635.677858-.1539213 1.3487251-.355 1.997zm20.374-17.579v18c0 .5522847-.4477153 1-1 1h-17.759c.4275-1.0514002.6769119-2.1666568.738-3.3.2828652-3.3800994-2.2029741-6.3600767-5.579-6.688-1.6586827-.116881-3.2905629.4658816-4.5 1.607-1.2096146 1.136375-1.8969949 2.7213294-1.9 4.381-.0163213 1.3703243.2406866 2.7301547.756 4h-17.756c-.55228475 0-1-.4477153-1-1v-18c-.00141435-.9418571-.26941231-1.8640752-.773-2.66.56520619-.2209043 1.16617063-.3361484 1.773-.34h46c.6068294.0038516 1.2077938.1190957 1.773.34-.5035877.7959248-.7715856 1.7181429-.773 2.66z" fill="#428dff"></path></g></g></g></svg>